# xmcd
#
# Track frame offsets:
#	150
#	10592
#	22210
#	36045
#	48715
#	58562
#
# Disc length: 973 seconds
#
# Revision: 1
# Processed by: cddbd v1.5.1PL0 Copyright (c) Steve Scherf et al.
# Submitted via: CDex 1.50Beta5
#
DISCID=4703cb06
DTITLE=DONUT MAN - PLAY ABOUT EVERY DAY
DYEAR=1900
DGENRE=
TTITLE0=I DON'T CARE
TTITLE1=GOOD SUNDAY MORNING
TTITLE2=FINE DAY
TTITLE3=ABOUT
TTITLE4=LOOKING AGAIN
TTITLE5=NOT ESCAPE FROM REALITY OF LIFE
EXTD=
EXTT0=
EXTT1=
EXTT2=
EXTT3=
EXTT4=
EXTT5=
PLAYORDER=
